<?xml version="1.0" encoding="utf-8" standalone="no"?>
<!DOCTYPE svg PUBLIC "-//W3C//DTD SVG 1.1//EN"
  "http://www.w3.org/Graphics/SVG/1.1/DTD/svg11.dtd">
<svg xmlns:xlink="http://www.w3.org/1999/xlink" width="1158.795297pt" height="1158.795297pt" viewBox="0 0 1158.795297 1158.795297" xmlns="http://www.w3.org/2000/svg" version="1.1">
 <metadata>
  <rdf:RDF xmlns:dc="http://purl.org/dc/elements/1.1/" xmlns:cc="http://creativecommons.org/ns#" xmlns:rdf="http://www.w3.org/1999/02/22-rdf-syntax-ns#">
   <cc:Work>
    <dc:type rdf:resource="http://purl.org/dc/dcmitype/StillImage"/>
    <dc:date>2025-06-20T22:30:24.213222</dc:date>
    <dc:format>image/svg+xml</dc:format>
    <dc:creator>
     <cc:Agent>
      <dc:title>Matplotlib v3.10.3, https://matplotlib.org/</dc:title>
     </cc:Agent>
    </dc:creator>
   </cc:Work>
  </rdf:RDF>
 </metadata>
 <defs>
  <style type="text/css">*{stroke-linejoin: round; stroke-linecap: butt}</style>
 </defs>
 <g id="figure_1">
  <g id="patch_1">
   <path d="M 0 1158.795297 
L 1158.795297 1158.795297 
L 1158.795297 0 
L 0 0 
z
" style="fill: #ffffff"/>
  </g>
  <g id="axes_1">
   <g id="patch_2">
    <path d="M 144.849412 1031.327814 
L 1042.915767 1031.327814 
L 1042.915767 139.055436 
L 144.849412 139.055436 
z
" style="fill: #ffffff"/>
   </g>
   <g id="LineCollection_1">
    <path d="M 696.216778 953.899219 
L 579.100837 700.180209 
" clip-path="url(#peb304954ea)" style="fill: none; stroke: #000000; stroke-opacity: 0.02"/>
    <path d="M 222.78079 746.302007 
L 579.100837 700.180209 
" clip-path="url(#peb304954ea)" style="fill: none; stroke: #000000; stroke-opacity: 0.02"/>
    <path d="M 964.984389 216.48403 
L 786.627606 440.049858 
" clip-path="url(#peb304954ea)" style="fill: none; stroke: #000000; stroke-opacity: 0.02"/>
    <path d="M 786.627606 440.049858 
L 579.100837 700.180209 
" clip-path="url(#peb304954ea)" style="fill: none; stroke: #000000; stroke-opacity: 0.02"/>
   </g>
   <g id="matplotlib.axis_1">
    <g id="xtick_1"/>
    <g id="xtick_2"/>
    <g id="xtick_3"/>
    <g id="xtick_4"/>
    <g id="xtick_5"/>
    <g id="xtick_6"/>
    <g id="xtick_7"/>
    <g id="xtick_8"/>
   </g>
   <g id="matplotlib.axis_2">
    <g id="ytick_1"/>
    <g id="ytick_2"/>
    <g id="ytick_3"/>
    <g id="ytick_4"/>
    <g id="ytick_5"/>
   </g>
   <g id="PathCollection_1">
    <path d="M 696.216778 956.135287 
C 696.80979 956.135287 697.378594 955.899681 697.797917 955.480358 
C 698.21724 955.061035 698.452846 954.492232 698.452846 953.899219 
C 698.452846 953.306207 698.21724 952.737404 697.797917 952.318081 
C 697.378594 951.898758 696.80979 951.663151 696.216778 951.663151 
C 695.623766 951.663151 695.054962 951.898758 694.635639 952.318081 
C 694.216316 952.737404 693.98071 953.306207 693.98071 953.899219 
C 693.98071 954.492232 694.216316 955.061035 694.635639 955.480358 
C 695.054962 955.899681 695.623766 956.135287 696.216778 956.135287 
z
" clip-path="url(#peb304954ea)" style="fill: #ff0000; fill-opacity: 0.6; stroke: #ff0000; stroke-opacity: 0.6"/>
    <path d="M 222.78079 750.774143 
C 223.966814 750.774143 225.104422 750.302931 225.943068 749.464285 
C 226.781714 748.625639 227.252926 747.488031 227.252926 746.302007 
C 227.252926 745.115983 226.781714 743.978375 225.943068 743.139729 
C 225.104422 742.301084 223.966814 741.829871 222.78079 741.829871 
C 221.594766 741.829871 220.457158 742.301084 219.618512 743.139729 
C 218.779867 743.978375 218.308654 745.115983 218.308654 746.302007 
C 218.308654 747.488031 218.779867 748.625639 219.618512 749.464285 
C 220.457158 750.302931 221.594766 750.774143 222.78079 750.774143 
z
" clip-path="url(#peb304954ea)" style="fill: #ff0000; fill-opacity: 0.6; stroke: #ff0000; stroke-opacity: 0.6"/>
    <path d="M 964.984389 218.720098 
C 965.577401 218.720098 966.146205 218.484492 966.565528 218.065169 
C 966.984851 217.645846 967.220457 217.077043 967.220457 216.48403 
C 967.220457 215.891018 966.984851 215.322215 966.565528 214.902892 
C 966.146205 214.483569 965.577401 214.247962 964.984389 214.247962 
C 964.391377 214.247962 963.822573 214.483569 963.403251 214.902892 
C 962.983928 215.322215 962.748321 215.891018 962.748321 216.48403 
C 962.748321 217.077043 962.983928 217.645846 963.403251 218.065169 
C 963.822573 218.484492 964.391377 218.720098 964.984389 218.720098 
z
" clip-path="url(#peb304954ea)" style="fill: #0000ff; fill-opacity: 0.6; stroke: #0000ff; stroke-opacity: 0.6"/>
    <path d="M 786.627606 445.049858 
C 787.953622 445.049858 789.225506 444.523027 790.16314 443.585392 
C 791.100775 442.647758 791.627606 441.375874 791.627606 440.049858 
C 791.627606 438.723843 791.100775 437.451959 790.16314 436.514324 
C 789.225506 435.57669 787.953622 435.049858 786.627606 435.049858 
C 785.301591 435.049858 784.029707 435.57669 783.092072 436.514324 
C 782.154438 437.451959 781.627606 438.723843 781.627606 440.049858 
C 781.627606 441.375874 782.154438 442.647758 783.092072 443.585392 
C 784.029707 444.523027 785.301591 445.049858 786.627606 445.049858 
z
" clip-path="url(#peb304954ea)" style="fill: #0000ff; fill-opacity: 0.6; stroke: #0000ff; stroke-opacity: 0.6"/>
    <path d="M 579.100837 704.652345 
C 580.286862 704.652345 581.424469 704.181132 582.263115 703.342486 
C 583.101761 702.50384 583.572973 701.366233 583.572973 700.180209 
C 583.572973 698.994184 583.101761 697.856577 582.263115 697.017931 
C 581.424469 696.179285 580.286862 695.708073 579.100837 695.708073 
C 577.914813 695.708073 576.777206 696.179285 575.93856 697.017931 
C 575.099914 697.856577 574.628702 698.994184 574.628702 700.180209 
C 574.628702 701.366233 575.099914 702.50384 575.93856 703.342486 
C 576.777206 704.181132 577.914813 704.652345 579.100837 704.652345 
z
" clip-path="url(#peb304954ea)" style="fill: #ff0000; fill-opacity: 0.6; stroke: #ff0000; stroke-opacity: 0.6"/>
   </g>
   <g id="patch_3">
    <path d="M 144.849412 1031.327814 
L 144.849412 139.055436 
" style="fill: none; stroke: #000000; stroke-width: 0.8; stroke-linejoin: miter; stroke-linecap: square"/>
   </g>
   <g id="patch_4">
    <path d="M 1042.915767 1031.327814 
L 1042.915767 139.055436 
" style="fill: none; stroke: #000000; stroke-width: 0.8; stroke-linejoin: miter; stroke-linecap: square"/>
   </g>
   <g id="patch_5">
    <path d="M 144.849412 1031.327814 
L 1042.915767 1031.327814 
" style="fill: none; stroke: #000000; stroke-width: 0.8; stroke-linejoin: miter; stroke-linecap: square"/>
   </g>
   <g id="patch_6">
    <path d="M 144.849412 139.055436 
L 1042.915767 139.055436 
" style="fill: none; stroke: #000000; stroke-width: 0.8; stroke-linejoin: miter; stroke-linecap: square"/>
   </g>
   <g id="text_1">
    <g clip-path="url(#peb304954ea)">
     <!-- National University -->
     <g style="opacity: 0.7" transform="translate(648.570684 956.658594) scale(0.1 -0.1)">
      <defs>
       <path id="DejaVuSans-4e" d="M 628 4666 
L 1478 4666 
L 3547 763 
L 3547 4666 
L 4159 4666 
L 4159 0 
L 3309 0 
L 1241 3903 
L 1241 0 
L 628 0 
L 628 4666 
z
" transform="scale(0.015625)"/>
       <path id="DejaVuSans-61" d="M 2194 1759 
Q 1497 1759 1228 1600 
Q 959 1441 959 1056 
Q 959 750 1161 570 
Q 1363 391 1709 391 
Q 2188 391 2477 730 
Q 2766 1069 2766 1631 
L 2766 1759 
L 2194 1759 
z
M 3341 1997 
L 3341 0 
L 2766 0 
L 2766 531 
Q 2569 213 2275 61 
Q 1981 -91 1556 -91 
Q 1019 -91 701 211 
Q 384 513 384 1019 
Q 384 1609 779 1909 
Q 1175 2209 1959 2209 
L 2766 2209 
L 2766 2266 
Q 2766 2663 2505 2880 
Q 2244 3097 1772 3097 
Q 1472 3097 1187 3025 
Q 903 2953 641 2809 
L 641 3341 
Q 956 3463 1253 3523 
Q 1550 3584 1831 3584 
Q 2591 3584 2966 3190 
Q 3341 2797 3341 1997 
z
" transform="scale(0.015625)"/>
       <path id="DejaVuSans-74" d="M 1172 4494 
L 1172 3500 
L 2356 3500 
L 2356 3053 
L 1172 3053 
L 1172 1153 
Q 1172 725 1289 603 
Q 1406 481 1766 481 
L 2356 481 
L 2356 0 
L 1766 0 
Q 1100 0 847 248 
Q 594 497 594 1153 
L 594 3053 
L 172 3053 
L 172 3500 
L 594 3500 
L 594 4494 
L 1172 4494 
z
" transform="scale(0.015625)"/>
       <path id="DejaVuSans-69" d="M 603 3500 
L 1178 3500 
L 1178 0 
L 603 0 
L 603 3500 
z
M 603 4863 
L 1178 4863 
L 1178 4134 
L 603 4134 
L 603 4863 
z
" transform="scale(0.015625)"/>
       <path id="DejaVuSans-6f" d="M 1959 3097 
Q 1497 3097 1228 2736 
Q 959 2375 959 1747 
Q 959 1119 1226 758 
Q 1494 397 1959 397 
Q 2419 397 2687 759 
Q 2956 1122 2956 1747 
Q 2956 2369 2687 2733 
Q 2419 3097 1959 3097 
z
M 1959 3584 
Q 2709 3584 3137 3096 
Q 3566 2609 3566 1747 
Q 3566 888 3137 398 
Q 2709 -91 1959 -91 
Q 1206 -91 779 398 
Q 353 888 353 1747 
Q 353 2609 779 3096 
Q 1206 3584 1959 3584 
z
" transform="scale(0.015625)"/>
       <path id="DejaVuSans-6e" d="M 3513 2113 
L 3513 0 
L 2938 0 
L 2938 2094 
Q 2938 2591 2744 2837 
Q 2550 3084 2163 3084 
Q 1697 3084 1428 2787 
Q 1159 2491 1159 1978 
L 1159 0 
L 581 0 
L 581 3500 
L 1159 3500 
L 1159 2956 
Q 1366 3272 1645 3428 
Q 1925 3584 2291 3584 
Q 2894 3584 3203 3211 
Q 3513 2838 3513 2113 
z
" transform="scale(0.015625)"/>
       <path id="DejaVuSans-6c" d="M 603 4863 
L 1178 4863 
L 1178 0 
L 603 0 
L 603 4863 
z
" transform="scale(0.015625)"/>
       <path id="DejaVuSans-20" transform="scale(0.015625)"/>
       <path id="DejaVuSans-55" d="M 556 4666 
L 1191 4666 
L 1191 1831 
Q 1191 1081 1462 751 
Q 1734 422 2344 422 
Q 2950 422 3222 751 
Q 3494 1081 3494 1831 
L 3494 4666 
L 4128 4666 
L 4128 1753 
Q 4128 841 3676 375 
Q 3225 -91 2344 -91 
Q 1459 -91 1007 375 
Q 556 841 556 1753 
L 556 4666 
z
" transform="scale(0.015625)"/>
       <path id="DejaVuSans-76" d="M 191 3500 
L 800 3500 
L 1894 563 
L 2988 3500 
L 3597 3500 
L 2284 0 
L 1503 0 
L 191 3500 
z
" transform="scale(0.015625)"/>
       <path id="DejaVuSans-65" d="M 3597 1894 
L 3597 1613 
L 953 1613 
Q 991 1019 1311 708 
Q 1631 397 2203 397 
Q 2534 397 2845 478 
Q 3156 559 3463 722 
L 3463 178 
Q 3153 47 2828 -22 
Q 2503 -91 2169 -91 
Q 1331 -91 842 396 
Q 353 884 353 1716 
Q 353 2575 817 3079 
Q 1281 3584 2069 3584 
Q 2775 3584 3186 3129 
Q 3597 2675 3597 1894 
z
M 3022 2063 
Q 3016 2534 2758 2815 
Q 2500 3097 2075 3097 
Q 1594 3097 1305 2825 
Q 1016 2553 972 2059 
L 3022 2063 
z
" transform="scale(0.015625)"/>
       <path id="DejaVuSans-72" d="M 2631 2963 
Q 2534 3019 2420 3045 
Q 2306 3072 2169 3072 
Q 1681 3072 1420 2755 
Q 1159 2438 1159 1844 
L 1159 0 
L 581 0 
L 581 3500 
L 1159 3500 
L 1159 2956 
Q 1341 3275 1631 3429 
Q 1922 3584 2338 3584 
Q 2397 3584 2469 3576 
Q 2541 3569 2628 3553 
L 2631 2963 
z
" transform="scale(0.015625)"/>
       <path id="DejaVuSans-73" d="M 2834 3397 
L 2834 2853 
Q 2591 2978 2328 3040 
Q 2066 3103 1784 3103 
Q 1356 3103 1142 2972 
Q 928 2841 928 2578 
Q 928 2378 1081 2264 
Q 1234 2150 1697 2047 
L 1894 2003 
Q 2506 1872 2764 1633 
Q 3022 1394 3022 966 
Q 3022 478 2636 193 
Q 2250 -91 1575 -91 
Q 1294 -91 989 -36 
Q 684 19 347 128 
L 347 722 
Q 666 556 975 473 
Q 1284 391 1588 391 
Q 1994 391 2212 530 
Q 2431 669 2431 922 
Q 2431 1156 2273 1281 
Q 2116 1406 1581 1522 
L 1381 1569 
Q 847 1681 609 1914 
Q 372 2147 372 2553 
Q 372 3047 722 3315 
Q 1072 3584 1716 3584 
Q 2034 3584 2315 3537 
Q 2597 3491 2834 3397 
z
" transform="scale(0.015625)"/>
       <path id="DejaVuSans-79" d="M 2059 -325 
Q 1816 -950 1584 -1140 
Q 1353 -1331 966 -1331 
L 506 -1331 
L 506 -850 
L 844 -850 
Q 1081 -850 1212 -737 
Q 1344 -625 1503 -206 
L 1606 56 
L 191 3500 
L 800 3500 
L 1894 763 
L 2988 3500 
L 3597 3500 
L 2059 -325 
z
" transform="scale(0.015625)"/>
      </defs>
      <use xlink:href="#DejaVuSans-4e"/>
      <use xlink:href="#DejaVuSans-61" transform="translate(74.804688 0)"/>
      <use xlink:href="#DejaVuSans-74" transform="translate(136.083984 0)"/>
      <use xlink:href="#DejaVuSans-69" transform="translate(175.292969 0)"/>
      <use xlink:href="#DejaVuSans-6f" transform="translate(203.076172 0)"/>
      <use xlink:href="#DejaVuSans-6e" transform="translate(264.257812 0)"/>
      <use xlink:href="#DejaVuSans-61" transform="translate(327.636719 0)"/>
      <use xlink:href="#DejaVuSans-6c" transform="translate(388.916016 0)"/>
      <use xlink:href="#DejaVuSans-20" transform="translate(416.699219 0)"/>
      <use xlink:href="#DejaVuSans-55" transform="translate(448.486328 0)"/>
      <use xlink:href="#DejaVuSans-6e" transform="translate(521.679688 0)"/>
      <use xlink:href="#DejaVuSans-69" transform="translate(585.058594 0)"/>
      <use xlink:href="#DejaVuSans-76" transform="translate(612.841797 0)"/>
      <use xlink:href="#DejaVuSans-65" transform="translate(672.021484 0)"/>
      <use xlink:href="#DejaVuSans-72" transform="translate(733.544922 0)"/>
      <use xlink:href="#DejaVuSans-73" transform="translate(774.658203 0)"/>
      <use xlink:href="#DejaVuSans-69" transform="translate(826.757812 0)"/>
      <use xlink:href="#DejaVuSans-74" transform="translate(854.541016 0)"/>
      <use xlink:href="#DejaVuSans-79" transform="translate(893.75 0)"/>
     </g>
    </g>
   </g>
   <g id="text_2">
    <g clip-path="url(#peb304954ea)">
     <!-- University of Kentucky -->
     <g style="opacity: 0.7" transform="translate(166.735478 749.061382) scale(0.1 -0.1)">
      <defs>
       <path id="DejaVuSans-66" d="M 2375 4863 
L 2375 4384 
L 1825 4384 
Q 1516 4384 1395 4259 
Q 1275 4134 1275 3809 
L 1275 3500 
L 2222 3500 
L 2222 3053 
L 1275 3053 
L 1275 0 
L 697 0 
L 697 3053 
L 147 3053 
L 147 3500 
L 697 3500 
L 697 3744 
Q 697 4328 969 4595 
Q 1241 4863 1831 4863 
L 2375 4863 
z
" transform="scale(0.015625)"/>
       <path id="DejaVuSans-4b" d="M 628 4666 
L 1259 4666 
L 1259 2694 
L 3353 4666 
L 4166 4666 
L 1850 2491 
L 4331 0 
L 3500 0 
L 1259 2247 
L 1259 0 
L 628 0 
L 628 4666 
z
" transform="scale(0.015625)"/>
       <path id="DejaVuSans-75" d="M 544 1381 
L 544 3500 
L 1119 3500 
L 1119 1403 
Q 1119 906 1312 657 
Q 1506 409 1894 409 
Q 2359 409 2629 706 
Q 2900 1003 2900 1516 
L 2900 3500 
L 3475 3500 
L 3475 0 
L 2900 0 
L 2900 538 
Q 2691 219 2414 64 
Q 2138 -91 1772 -91 
Q 1169 -91 856 284 
Q 544 659 544 1381 
z
M 1991 3584 
L 1991 3584 
z
" transform="scale(0.015625)"/>
       <path id="DejaVuSans-63" d="M 3122 3366 
L 3122 2828 
Q 2878 2963 2633 3030 
Q 2388 3097 2138 3097 
Q 1578 3097 1268 2742 
Q 959 2388 959 1747 
Q 959 1106 1268 751 
Q 1578 397 2138 397 
Q 2388 397 2633 464 
Q 2878 531 3122 666 
L 3122 134 
Q 2881 22 2623 -34 
Q 2366 -91 2075 -91 
Q 1284 -91 818 406 
Q 353 903 353 1747 
Q 353 2603 823 3093 
Q 1294 3584 2113 3584 
Q 2378 3584 2631 3529 
Q 2884 3475 3122 3366 
z
" transform="scale(0.015625)"/>
       <path id="DejaVuSans-6b" d="M 581 4863 
L 1159 4863 
L 1159 1991 
L 2875 3500 
L 3609 3500 
L 1753 1863 
L 3688 0 
L 2938 0 
L 1159 1709 
L 1159 0 
L 581 0 
L 581 4863 
z
" transform="scale(0.015625)"/>
      </defs>
      <use xlink:href="#DejaVuSans-55"/>
      <use xlink:href="#DejaVuSans-6e" transform="translate(73.193359 0)"/>
      <use xlink:href="#DejaVuSans-69" transform="translate(136.572266 0)"/>
      <use xlink:href="#DejaVuSans-76" transform="translate(164.355469 0)"/>
      <use xlink:href="#DejaVuSans-65" transform="translate(223.535156 0)"/>
      <use xlink:href="#DejaVuSans-72" transform="translate(285.058594 0)"/>
      <use xlink:href="#DejaVuSans-73" transform="translate(326.171875 0)"/>
      <use xlink:href="#DejaVuSans-69" transform="translate(378.271484 0)"/>
      <use xlink:href="#DejaVuSans-74" transform="translate(406.054688 0)"/>
      <use xlink:href="#DejaVuSans-79" transform="translate(445.263672 0)"/>
      <use xlink:href="#DejaVuSans-20" transform="translate(504.443359 0)"/>
      <use xlink:href="#DejaVuSans-6f" transform="translate(536.230469 0)"/>
      <use xlink:href="#DejaVuSans-66" transform="translate(597.412109 0)"/>
      <use xlink:href="#DejaVuSans-20" transform="translate(632.617188 0)"/>
      <use xlink:href="#DejaVuSans-4b" transform="translate(664.404297 0)"/>
      <use xlink:href="#DejaVuSans-65" transform="translate(724.980469 0)"/>
      <use xlink:href="#DejaVuSans-6e" transform="translate(786.503906 0)"/>
      <use xlink:href="#DejaVuSans-74" transform="translate(849.882812 0)"/>
      <use xlink:href="#DejaVuSans-75" transform="translate(889.091797 0)"/>
      <use xlink:href="#DejaVuSans-63" transform="translate(952.470703 0)"/>
      <use xlink:href="#DejaVuSans-6b" transform="translate(1007.451172 0)"/>
      <use xlink:href="#DejaVuSans-79" transform="translate(1061.736328 0)"/>
     </g>
    </g>
   </g>
   <g id="text_3">
    <g clip-path="url(#peb304954ea)">
     <!-- Converse University -->
     <g style="opacity: 0.7" transform="translate(914.681264 219.243405) scale(0.1 -0.1)">
      <defs>
       <path id="DejaVuSans-43" d="M 4122 4306 
L 4122 3641 
Q 3803 3938 3442 4084 
Q 3081 4231 2675 4231 
Q 1875 4231 1450 3742 
Q 1025 3253 1025 2328 
Q 1025 1406 1450 917 
Q 1875 428 2675 428 
Q 3081 428 3442 575 
Q 3803 722 4122 1019 
L 4122 359 
Q 3791 134 3420 21 
Q 3050 -91 2638 -91 
Q 1578 -91 968 557 
Q 359 1206 359 2328 
Q 359 3453 968 4101 
Q 1578 4750 2638 4750 
Q 3056 4750 3426 4639 
Q 3797 4528 4122 4306 
z
" transform="scale(0.015625)"/>
      </defs>
      <use xlink:href="#DejaVuSans-43"/>
      <use xlink:href="#DejaVuSans-6f" transform="translate(69.824219 0)"/>
      <use xlink:href="#DejaVuSans-6e" transform="translate(131.005859 0)"/>
      <use xlink:href="#DejaVuSans-76" transform="translate(194.384766 0)"/>
      <use xlink:href="#DejaVuSans-65" transform="translate(253.564453 0)"/>
      <use xlink:href="#DejaVuSans-72" transform="translate(315.087891 0)"/>
      <use xlink:href="#DejaVuSans-73" transform="translate(356.201172 0)"/>
      <use xlink:href="#DejaVuSans-65" transform="translate(408.300781 0)"/>
      <use xlink:href="#DejaVuSans-20" transform="translate(469.824219 0)"/>
      <use xlink:href="#DejaVuSans-55" transform="translate(501.611328 0)"/>
      <use xlink:href="#DejaVuSans-6e" transform="translate(574.804688 0)"/>
      <use xlink:href="#DejaVuSans-69" transform="translate(638.183594 0)"/>
      <use xlink:href="#DejaVuSans-76" transform="translate(665.966797 0)"/>
      <use xlink:href="#DejaVuSans-65" transform="translate(725.146484 0)"/>
      <use xlink:href="#DejaVuSans-72" transform="translate(786.669922 0)"/>
      <use xlink:href="#DejaVuSans-73" transform="translate(827.783203 0)"/>
      <use xlink:href="#DejaVuSans-69" transform="translate(879.882812 0)"/>
      <use xlink:href="#DejaVuSans-74" transform="translate(907.666016 0)"/>
      <use xlink:href="#DejaVuSans-79" transform="translate(946.875 0)"/>
     </g>
    </g>
   </g>
   <g id="text_4">
    <g clip-path="url(#peb304954ea)">
     <!-- University of South Carolina -->
     <g style="opacity: 0.7" transform="translate(716.719013 442.809233) scale(0.1 -0.1)">
      <defs>
       <path id="DejaVuSans-53" d="M 3425 4513 
L 3425 3897 
Q 3066 4069 2747 4153 
Q 2428 4238 2131 4238 
Q 1616 4238 1336 4038 
Q 1056 3838 1056 3469 
Q 1056 3159 1242 3001 
Q 1428 2844 1947 2747 
L 2328 2669 
Q 3034 2534 3370 2195 
Q 3706 1856 3706 1288 
Q 3706 609 3251 259 
Q 2797 -91 1919 -91 
Q 1588 -91 1214 -16 
Q 841 59 441 206 
L 441 856 
Q 825 641 1194 531 
Q 1563 422 1919 422 
Q 2459 422 2753 634 
Q 3047 847 3047 1241 
Q 3047 1584 2836 1778 
Q 2625 1972 2144 2069 
L 1759 2144 
Q 1053 2284 737 2584 
Q 422 2884 422 3419 
Q 422 4038 858 4394 
Q 1294 4750 2059 4750 
Q 2388 4750 2728 4690 
Q 3069 4631 3425 4513 
z
" transform="scale(0.015625)"/>
       <path id="DejaVuSans-68" d="M 3513 2113 
L 3513 0 
L 2938 0 
L 2938 2094 
Q 2938 2591 2744 2837 
Q 2550 3084 2163 3084 
Q 1697 3084 1428 2787 
Q 1159 2491 1159 1978 
L 1159 0 
L 581 0 
L 581 4863 
L 1159 4863 
L 1159 2956 
Q 1366 3272 1645 3428 
Q 1925 3584 2291 3584 
Q 2894 3584 3203 3211 
Q 3513 2838 3513 2113 
z
" transform="scale(0.015625)"/>
      </defs>
      <use xlink:href="#DejaVuSans-55"/>
      <use xlink:href="#DejaVuSans-6e" transform="translate(73.193359 0)"/>
      <use xlink:href="#DejaVuSans-69" transform="translate(136.572266 0)"/>
      <use xlink:href="#DejaVuSans-76" transform="translate(164.355469 0)"/>
      <use xlink:href="#DejaVuSans-65" transform="translate(223.535156 0)"/>
      <use xlink:href="#DejaVuSans-72" transform="translate(285.058594 0)"/>
      <use xlink:href="#DejaVuSans-73" transform="translate(326.171875 0)"/>
      <use xlink:href="#DejaVuSans-69" transform="translate(378.271484 0)"/>
      <use xlink:href="#DejaVuSans-74" transform="translate(406.054688 0)"/>
      <use xlink:href="#DejaVuSans-79" transform="translate(445.263672 0)"/>
      <use xlink:href="#DejaVuSans-20" transform="translate(504.443359 0)"/>
      <use xlink:href="#DejaVuSans-6f" transform="translate(536.230469 0)"/>
      <use xlink:href="#DejaVuSans-66" transform="translate(597.412109 0)"/>
      <use xlink:href="#DejaVuSans-20" transform="translate(632.617188 0)"/>
      <use xlink:href="#DejaVuSans-53" transform="translate(664.404297 0)"/>
      <use xlink:href="#DejaVuSans-6f" transform="translate(727.880859 0)"/>
      <use xlink:href="#DejaVuSans-75" transform="translate(789.0625 0)"/>
      <use xlink:href="#DejaVuSans-74" transform="translate(852.441406 0)"/>
      <use xlink:href="#DejaVuSans-68" transform="translate(891.650391 0)"/>
      <use xlink:href="#DejaVuSans-20" transform="translate(955.029297 0)"/>
      <use xlink:href="#DejaVuSans-43" transform="translate(986.816406 0)"/>
      <use xlink:href="#DejaVuSans-61" transform="translate(1056.640625 0)"/>
      <use xlink:href="#DejaVuSans-72" transform="translate(1117.919922 0)"/>
      <use xlink:href="#DejaVuSans-6f" transform="translate(1156.783203 0)"/>
      <use xlink:href="#DejaVuSans-6c" transform="translate(1217.964844 0)"/>
      <use xlink:href="#DejaVuSans-69" transform="translate(1245.748047 0)"/>
      <use xlink:href="#DejaVuSans-6e" transform="translate(1273.53125 0)"/>
      <use xlink:href="#DejaVuSans-61" transform="translate(1336.910156 0)"/>
     </g>
    </g>
   </g>
   <g id="text_5">
    <g clip-path="url(#peb304954ea)">
     <!-- University of Louisville -->
     <g style="opacity: 0.7" transform="translate(522.757869 702.939584) scale(0.1 -0.1)">
      <defs>
       <path id="DejaVuSans-4c" d="M 628 4666 
L 1259 4666 
L 1259 531 
L 3531 531 
L 3531 0 
L 628 0 
L 628 4666 
z
" transform="scale(0.015625)"/>
      </defs>
      <use xlink:href="#DejaVuSans-55"/>
      <use xlink:href="#DejaVuSans-6e" transform="translate(73.193359 0)"/>
      <use xlink:href="#DejaVuSans-69" transform="translate(136.572266 0)"/>
      <use xlink:href="#DejaVuSans-76" transform="translate(164.355469 0)"/>
      <use xlink:href="#DejaVuSans-65" transform="translate(223.535156 0)"/>
      <use xlink:href="#DejaVuSans-72" transform="translate(285.058594 0)"/>
      <use xlink:href="#DejaVuSans-73" transform="translate(326.171875 0)"/>
      <use xlink:href="#DejaVuSans-69" transform="translate(378.271484 0)"/>
      <use xlink:href="#DejaVuSans-74" transform="translate(406.054688 0)"/>
      <use xlink:href="#DejaVuSans-79" transform="translate(445.263672 0)"/>
      <use xlink:href="#DejaVuSans-20" transform="translate(504.443359 0)"/>
      <use xlink:href="#DejaVuSans-6f" transform="translate(536.230469 0)"/>
      <use xlink:href="#DejaVuSans-66" transform="translate(597.412109 0)"/>
      <use xlink:href="#DejaVuSans-20" transform="translate(632.617188 0)"/>
      <use xlink:href="#DejaVuSans-4c" transform="translate(664.404297 0)"/>
      <use xlink:href="#DejaVuSans-6f" transform="translate(718.367188 0)"/>
      <use xlink:href="#DejaVuSans-75" transform="translate(779.548828 0)"/>
      <use xlink:href="#DejaVuSans-69" transform="translate(842.927734 0)"/>
      <use xlink:href="#DejaVuSans-73" transform="translate(870.710938 0)"/>
      <use xlink:href="#DejaVuSans-76" transform="translate(922.810547 0)"/>
      <use xlink:href="#DejaVuSans-69" transform="translate(981.990234 0)"/>
      <use xlink:href="#DejaVuSans-6c" transform="translate(1009.773438 0)"/>
      <use xlink:href="#DejaVuSans-6c" transform="translate(1037.556641 0)"/>
      <use xlink:href="#DejaVuSans-65" transform="translate(1065.339844 0)"/>
     </g>
    </g>
   </g>
  </g>
 </g>
 <defs>
  <clipPath id="peb304954ea">
   <rect x="144.849412" y="139.055436" width="898.066355" height="892.272379"/>
  </clipPath>
 </defs>
</svg>
